<svg width="161" height="169" viewBox="0 0 161 169" fill="none" xmlns="http://www.w3.org/2000/svg">
<g clip-path="url(#clip0_1_2)">
<mask id="mask0_1_2" style="mask-type:luminance" maskUnits="userSpaceOnUse" x="0" y="0" width="161" height="169">
<path d="M161 0H0V169H161V0Z" fill="white"/>
</mask>
<g mask="url(#mask0_1_2)">
<path d="M37.4258 40.6361L52.6533 30.1691C57.7969 26.6335 63.9295 24.8205 70.1688 24.9908L88.8996 25.5021C95.0959 25.6713 101.082 27.788 106.007 31.5517L121.022 43.0264C125.947 46.7901 129.562 52.0097 131.352 57.9441L136.765 75.883C138.568 81.8586 138.429 88.252 136.369 94.1437L130.269 111.586C128.199 117.503 124.299 122.607 119.133 126.157L103.906 136.624C98.7619 140.16 92.6294 141.973 86.3901 141.803L67.6593 141.291C61.4629 141.122 55.4773 139.005 50.5521 135.242L35.5367 123.767C30.6116 120.003 26.9971 114.784 25.2065 108.849L19.7937 90.9104C17.9907 84.9349 18.1294 78.5415 20.19 72.6498L26.2902 55.2078C28.3596 49.2909 32.26 44.1869 37.4258 40.6361Z" stroke="#C4B321" stroke-width="3"/>
<path d="M64.8291 18.8496L88.418 18.2367C94.6457 18.0748 100.765 19.8887 105.898 23.4183L125.342 36.7877C130.476 40.3173 134.36 45.3814 136.438 51.2543L144.311 73.4993C146.389 79.3722 146.555 85.7522 144.784 91.7251L138.078 114.349C136.307 120.322 132.691 125.581 127.748 129.372L109.025 143.733C104.081 147.525 98.0648 149.654 91.8372 149.816L68.2482 150.429C62.0205 150.591 55.9015 148.777 50.7681 145.247L31.3239 131.878C26.1905 128.348 22.3063 123.284 20.2279 117.411L12.3555 95.1663C10.2772 89.2934 10.1114 82.9134 11.8819 76.9405L18.5884 54.3167C20.3589 48.3438 23.9749 43.0847 28.9181 39.2933L47.6416 24.9321C52.5848 21.1407 58.6014 19.0114 64.8291 18.8496Z" stroke="#C4B321" stroke-width="3"/>
<path d="M87.9164 22.4285L109.169 29.4321C115.024 31.3618 120.128 35.0778 123.763 40.0578L136.132 57.003C139.901 62.167 141.891 68.4157 141.801 74.8083L141.52 94.906C141.43 101.299 139.266 107.489 135.354 112.546L122.515 129.138C118.742 134.014 113.536 137.585 107.629 139.35L86.1887 145.756C80.4094 147.483 74.2396 147.396 68.5109 145.508L47.2585 138.505C41.4028 136.575 36.2988 132.859 32.6639 127.879L20.2954 110.934C16.5262 105.77 14.5366 99.5211 14.6261 93.1285L14.9077 73.0307C14.9972 66.6381 17.1611 60.4476 21.0735 55.3912L33.9118 38.7991C37.6848 33.9229 42.8908 30.3513 48.7983 28.5864L70.2385 22.1808C76.0179 20.4542 82.1876 20.5406 87.9164 22.4285Z" stroke="#C4B321" stroke-width="3"/>
<path d="M49.4596 37.0116L64.4351 30.7136C70.1822 28.2966 76.5473 27.7626 82.6168 29.1883L98.533 32.9268C104.585 34.3484 110.034 37.6457 114.1 42.348L124.837 54.7626C128.904 59.4649 131.381 65.3318 131.915 71.5258L133.319 87.8148C133.855 94.0264 132.409 100.248 129.188 105.587L120.797 119.497C117.57 124.845 112.73 129.031 106.973 131.453L91.9975 137.751C86.2503 140.168 79.8852 140.702 73.8157 139.276L57.8995 135.537C51.8473 134.116 46.3989 130.818 42.3321 126.116L31.5955 113.702C27.5287 108.999 25.0515 103.132 24.5175 96.9383L23.1132 80.6494C22.5776 74.4377 24.0239 68.2161 27.2443 62.8776L35.636 48.9668C38.8621 43.6189 43.7023 39.4328 49.4596 37.0116Z" stroke="#C4B321" stroke-width="3"/>
<mask id="mask1_1_2" style="mask-type:luminance" maskUnits="userSpaceOnUse" x="33" y="44" width="90" height="79">
<path d="M123 44.9998H33V123H123V44.9998Z" fill="white"/>
</mask>
<g mask="url(#mask1_1_2)">
<path d="M52.604 108.768H53.048C53.792 108.768 54.328 108.668 54.656 108.468C54.992 108.26 55.16 107.956 55.16 107.556C55.16 107.172 55.024 106.888 54.752 106.704C54.488 106.52 54.048 106.428 53.432 106.428C53.128 106.428 52.852 106.452 52.604 106.5V108.768ZM52.604 110.016V112.74C52.884 112.788 53.184 112.812 53.504 112.812C54.168 112.812 54.652 112.692 54.956 112.452C55.268 112.204 55.424 111.828 55.424 111.324C55.424 110.876 55.248 110.548 54.896 110.34C54.544 110.124 53.956 110.016 53.132 110.016H52.604ZM57.032 111.48C57.032 112.36 56.744 113.02 56.168 113.46C55.592 113.9 54.692 114.12 53.468 114.12C52.58 114.12 51.74 114.06 50.948 113.94V105.3C51.7 105.18 52.5 105.12 53.348 105.12C55.588 105.12 56.708 105.852 56.708 107.316C56.708 107.812 56.544 108.24 56.216 108.6C55.888 108.952 55.452 109.18 54.908 109.284V109.308C55.564 109.396 56.08 109.64 56.456 110.04C56.84 110.432 57.032 110.912 57.032 111.48ZM58.2694 107.76H59.7574L59.7814 108.96H59.8054C60.5174 108.08 61.4734 107.64 62.6734 107.64V108.912C61.7854 108.912 61.0934 109.128 60.5974 109.56C60.1094 109.984 59.8654 110.556 59.8654 111.276V114H58.2694V107.76ZM66.2503 107.64C67.2023 107.64 67.8863 107.828 68.3023 108.204C68.7183 108.572 68.9263 109.172 68.9263 110.004V112.32C68.9263 112.888 68.9863 113.448 69.1063 114H67.6303C67.5823 113.736 67.5463 113.428 67.5223 113.076H67.4983C67.2743 113.404 66.9703 113.66 66.5863 113.844C66.2103 114.028 65.7983 114.12 65.3503 114.12C64.7663 114.12 64.2983 113.96 63.9463 113.64C63.6023 113.312 63.4303 112.86 63.4303 112.284C63.4303 111.588 63.7223 111.032 64.3063 110.616C64.8983 110.192 65.7463 109.98 66.8503 109.98H67.3663V109.944C67.3663 109.52 67.2823 109.224 67.1143 109.056C66.9463 108.888 66.6463 108.804 66.2143 108.804C65.4303 108.804 64.6903 108.984 63.9943 109.344L63.7663 108.18C64.5263 107.82 65.3543 107.64 66.2503 107.64ZM64.8943 112.164C64.8943 112.42 64.9703 112.62 65.1223 112.764C65.2743 112.908 65.4823 112.98 65.7463 112.98C66.2023 112.98 66.5863 112.832 66.8983 112.536C67.2103 112.24 67.3663 111.868 67.3663 111.42V111.012H66.8503C66.2183 111.012 65.7343 111.12 65.3983 111.336C65.0623 111.544 64.8943 111.82 64.8943 112.164ZM74.9072 109.272C74.2432 108.968 73.5912 108.816 72.9512 108.816C72.2152 108.816 71.8472 109.032 71.8472 109.464C71.8472 109.672 71.9272 109.832 72.0872 109.944C72.2472 110.056 72.5272 110.14 72.9272 110.196C73.8152 110.324 74.4512 110.556 74.8352 110.892C75.2192 111.22 75.4112 111.676 75.4112 112.26C75.4112 112.836 75.1872 113.292 74.7392 113.628C74.2992 113.956 73.6752 114.12 72.8672 114.12C71.8992 114.12 71.0392 113.92 70.2872 113.52L70.5872 112.344C71.2672 112.736 71.9992 112.932 72.7832 112.932C73.4792 112.932 73.8272 112.7 73.8272 112.236C73.8272 112.02 73.7552 111.86 73.6112 111.756C73.4672 111.644 73.1872 111.552 72.7712 111.48C71.8912 111.336 71.2592 111.1 70.8752 110.772C70.4992 110.444 70.3112 110 70.3112 109.44C70.3112 108.888 70.5272 108.452 70.9592 108.132C71.3992 107.804 72.0352 107.64 72.8672 107.64C73.6992 107.64 74.4792 107.792 75.2072 108.096L74.9072 109.272ZM81.0947 109.272C80.4307 108.968 79.7787 108.816 79.1387 108.816C78.4027 108.816 78.0347 109.032 78.0347 109.464C78.0347 109.672 78.1147 109.832 78.2747 109.944C78.4347 110.056 78.7147 110.14 79.1147 110.196C80.0027 110.324 80.6387 110.556 81.0227 110.892C81.4067 111.22 81.5987 111.676 81.5987 112.26C81.5987 112.836 81.3747 113.292 80.9267 113.628C80.4867 113.956 79.8627 114.12 79.0547 114.12C78.0867 114.12 77.2267 113.92 76.4747 113.52L76.7747 112.344C77.4547 112.736 78.1867 112.932 78.9707 112.932C79.6667 112.932 80.0147 112.7 80.0147 112.236C80.0147 112.02 79.9427 111.86 79.7987 111.756C79.6547 111.644 79.3747 111.552 78.9587 111.48C78.0787 111.336 77.4467 111.1 77.0627 110.772C76.6867 110.444 76.4987 110 76.4987 109.44C76.4987 108.888 76.7147 108.452 77.1467 108.132C77.5867 107.804 78.2227 107.64 79.0547 107.64C79.8867 107.64 80.6667 107.792 81.3947 108.096L81.0947 109.272ZM84.1594 110.376H87.0874C87.0794 109.856 86.9474 109.46 86.6914 109.188C86.4434 108.908 86.0914 108.768 85.6354 108.768C85.1954 108.768 84.8434 108.908 84.5794 109.188C84.3234 109.468 84.1834 109.864 84.1594 110.376ZM84.1594 111.444C84.1994 111.916 84.3794 112.292 84.6994 112.572C85.0274 112.844 85.4394 112.98 85.9354 112.98C86.5274 112.98 87.1154 112.832 87.6994 112.536L88.0594 113.64C87.3394 113.96 86.5794 114.12 85.7794 114.12C84.8354 114.12 84.0674 113.828 83.4754 113.244C82.8914 112.66 82.5994 111.872 82.5994 110.88C82.5994 109.872 82.8714 109.08 83.4154 108.504C83.9594 107.928 84.6954 107.64 85.6234 107.64C86.5514 107.64 87.2714 107.916 87.7834 108.468C88.3034 109.02 88.5634 109.812 88.5634 110.844C88.5634 111.044 88.5514 111.244 88.5274 111.444H84.1594ZM89.8632 107.76H91.3512L91.3752 108.96H91.3992C92.1112 108.08 93.0672 107.64 94.2672 107.64V108.912C93.3792 108.912 92.6872 109.128 92.1912 109.56C91.7032 109.984 91.4592 110.556 91.4592 111.276V114H89.8632V107.76ZM96.0474 106.44V105H97.6914V106.44H96.0474ZM96.0474 114V107.76H97.6914V114H96.0474ZM100.847 110.376H103.775C103.767 109.856 103.635 109.46 103.379 109.188C103.131 108.908 102.779 108.768 102.323 108.768C101.883 108.768 101.531 108.908 101.267 109.188C101.011 109.468 100.871 109.864 100.847 110.376ZM100.847 111.444C100.887 111.916 101.067 112.292 101.387 112.572C101.715 112.844 102.127 112.98 102.623 112.98C103.215 112.98 103.803 112.832 104.387 112.536L104.747 113.64C104.027 113.96 103.267 114.12 102.467 114.12C101.523 114.12 100.755 113.828 100.163 113.244C99.5789 112.66 99.2869 111.872 99.2869 110.88C99.2869 109.872 99.5589 109.08 100.103 108.504C100.647 107.928 101.383 107.64 102.311 107.64C103.239 107.64 103.959 107.916 104.471 108.468C104.991 109.02 105.251 109.812 105.251 110.844C105.251 111.044 105.239 111.244 105.215 111.444H100.847Z" fill="#C4B321"/>
<path d="M51.2488 63.7498C54.7155 63.2498 58.3822 62.9998 62.2488 62.9998C67.2488 62.9998 70.9988 63.9998 73.4988 65.9998C75.9988 67.9664 77.2488 70.8331 77.2488 74.5998C77.2488 78.7664 76.0322 81.9164 73.5988 84.0498C71.1988 86.1831 67.6322 87.2498 62.8988 87.2498C60.9655 87.2498 59.3822 87.1831 58.1488 87.0498V99.9998H51.2488V63.7498ZM58.1488 81.6498C59.4155 81.8498 60.7822 81.9498 62.2488 81.9498C64.9488 81.9498 66.9988 81.3664 68.3988 80.1998C69.8322 78.9998 70.5488 77.2998 70.5488 75.0998C70.5488 70.6664 67.7822 68.4498 62.2488 68.4498C60.7488 68.4498 59.3822 68.5498 58.1488 68.7498V81.6498ZM89.5453 78.1998H91.3953C94.4953 78.1998 96.7286 77.7831 98.0953 76.9498C99.4953 76.0831 100.195 74.8164 100.195 73.1498C100.195 71.5498 99.6286 70.3664 98.4953 69.5998C97.3953 68.8331 95.562 68.4498 92.9953 68.4498C91.7286 68.4498 90.5786 68.5498 89.5453 68.7498V78.1998ZM89.5453 83.3998V94.7498C90.712 94.9498 91.962 95.0498 93.2953 95.0498C96.062 95.0498 98.0786 94.5498 99.3453 93.5498C100.645 92.5164 101.295 90.9498 101.295 88.8498C101.295 86.9831 100.562 85.6164 99.0953 84.7498C97.6286 83.8498 95.1786 83.3998 91.7453 83.3998H89.5453ZM107.995 89.4998C107.995 93.1664 106.795 95.9164 104.395 97.7498C101.995 99.5831 98.2453 100.5 93.1453 100.5C89.4453 100.5 85.9453 100.25 82.6453 99.7498V63.7498C85.7786 63.2498 89.112 62.9998 92.6453 62.9998C101.979 62.9998 106.645 66.0498 106.645 72.1498C106.645 74.2164 105.962 75.9998 104.595 77.4998C103.229 78.9664 101.412 79.9164 99.1453 80.3498V80.4498C101.879 80.8164 104.029 81.8331 105.595 83.4998C107.195 85.1331 107.995 87.1331 107.995 89.4998Z" fill="#C4B321"/>
</g>
</g>
</g>
<defs>
<clipPath id="clip0_1_2">
<rect width="161" height="169" fill="white"/>
</clipPath>
</defs>
</svg>
