<svg width="470" height="254" viewBox="0 0 470 254" fill="none" xmlns="http://www.w3.org/2000/svg">
<g clip-path="url(#clip0_1_4)">
<g clip-path="url(#clip1_1_4)">
<g clip-path="url(#clip2_1_4)">
<rect width="478" height="26" transform="translate(-4 204)" fill="white"/>
<path d="M9.632 212.714C8.276 212.714 7.196 213.14 6.392 213.992C5.588 214.832 5.186 215.978 5.186 217.43C5.186 218.87 5.6 220.016 6.428 220.868C7.256 221.72 8.324 222.146 9.632 222.146C10.724 222.146 11.792 221.816 12.836 221.156L13.592 223.01C12.38 223.79 10.982 224.18 9.398 224.18C7.346 224.18 5.702 223.574 4.466 222.362C3.23 221.138 2.612 219.494 2.612 217.43C2.612 215.354 3.218 213.71 4.43 212.498C5.642 211.286 7.298 210.68 9.398 210.68C10.982 210.68 12.38 211.07 13.592 211.85L12.836 213.704C11.792 213.044 10.724 212.714 9.632 212.714ZM18.5623 218.87V224H16.0783V210.95C17.3023 210.77 18.6223 210.68 20.0383 210.68C21.8023 210.68 23.1223 211.01 23.9983 211.67C24.8743 212.318 25.3123 213.236 25.3123 214.424C25.3123 215.288 25.0783 216.044 24.6103 216.692C24.1543 217.34 23.5303 217.79 22.7383 218.042V218.078C23.3143 218.414 23.8123 219.128 24.2323 220.22L25.6723 224H23.0803L21.7123 220.274C21.4963 219.698 21.2503 219.32 20.9743 219.14C20.6983 218.96 20.2243 218.87 19.5523 218.87H18.5623ZM18.5623 216.962H19.6243C21.7603 216.962 22.8283 216.2 22.8283 214.676C22.8283 213.32 21.8383 212.642 19.8583 212.642C19.3663 212.642 18.9343 212.678 18.5623 212.75V216.962ZM30.3229 212.894V216.116H35.5969V218.042H30.3229V221.966H35.9569V224H27.8029V210.86H35.9569V212.894H30.3229ZM37.7134 224L42.2674 210.86H44.9674L49.5394 224H46.8394L45.9034 220.832H41.2774L40.3234 224H37.7134ZM41.8354 218.906H45.3274L43.5994 213.074H43.5634L41.8354 218.906ZM59.1243 210.86V212.948H55.3623V224H52.8063V212.948H49.0443V210.86H59.1243ZM61.8777 224V210.86H64.6317V224H61.8777ZM69.6103 210.86L72.8323 221.534H72.8683L76.1263 210.86H78.7543L74.1823 224H71.4823L66.9283 210.86H69.6103ZM83.2154 212.894V216.116H88.4894V218.042H83.2154V221.966H88.8494V224H80.6954V210.86H88.8494V212.894H83.2154ZM96.9728 210.86H104.947V212.894H99.4928V216.35H104.587V218.294H99.4928V224H96.9728V210.86ZM110.004 218.87V224H107.52V210.95C108.744 210.77 110.064 210.68 111.48 210.68C113.244 210.68 114.564 211.01 115.44 211.67C116.316 212.318 116.754 213.236 116.754 214.424C116.754 215.288 116.52 216.044 116.052 216.692C115.596 217.34 114.972 217.79 114.18 218.042V218.078C114.756 218.414 115.254 219.128 115.674 220.22L117.114 224H114.522L113.154 220.274C112.938 219.698 112.692 219.32 112.416 219.14C112.14 218.96 111.666 218.87 110.994 218.87H110.004ZM110.004 216.962H111.066C113.202 216.962 114.27 216.2 114.27 214.676C114.27 213.32 113.28 212.642 111.3 212.642C110.808 212.642 110.376 212.678 110.004 212.75V216.962ZM121.764 212.894V216.116H127.038V218.042H121.764V221.966H127.398V224H119.244V210.86H127.398V212.894H121.764ZM130.055 224V210.86H132.521L137.939 219.806H137.975V210.86H140.441V224H137.975L132.557 215.054H132.521V224H130.055ZM149.501 212.714C148.145 212.714 147.065 213.14 146.261 213.992C145.457 214.832 145.055 215.978 145.055 217.43C145.055 218.87 145.469 220.016 146.297 220.868C147.125 221.72 148.193 222.146 149.501 222.146C150.593 222.146 151.661 221.816 152.705 221.156L153.461 223.01C152.249 223.79 150.851 224.18 149.267 224.18C147.215 224.18 145.571 223.574 144.335 222.362C143.099 221.138 142.481 219.494 142.481 217.43C142.481 215.354 143.087 213.71 144.299 212.498C145.511 211.286 147.167 210.68 149.267 210.68C150.851 210.68 152.249 211.07 153.461 211.85L152.705 213.704C151.661 213.044 150.593 212.714 149.501 212.714ZM163.813 218.042H158.467V224H155.947V210.86H158.467V216.116H163.813V210.86H166.333V224H163.813V218.042ZM180.861 213.56V217.826H185.127V219.734H180.861V224H178.827V219.734H174.561V217.826H178.827V213.56H180.861ZM192.454 224L197.008 210.86H199.708L204.28 224H201.58L200.644 220.832H196.018L195.064 224H192.454ZM196.576 218.906H200.068L198.34 213.074H198.304L196.576 218.906ZM206.221 210.86H214.195V212.894H208.741V216.35H213.835V218.294H208.741V224H206.221V210.86ZM219.252 218.87V224H216.768V210.95C217.992 210.77 219.312 210.68 220.728 210.68C222.492 210.68 223.812 211.01 224.688 211.67C225.564 212.318 226.002 213.236 226.002 214.424C226.002 215.288 225.768 216.044 225.3 216.692C224.844 217.34 224.22 217.79 223.428 218.042V218.078C224.004 218.414 224.502 219.128 224.922 220.22L226.362 224H223.77L222.402 220.274C222.186 219.698 221.94 219.32 221.664 219.14C221.388 218.96 220.914 218.87 220.242 218.87H219.252ZM219.252 216.962H220.314C222.45 216.962 223.518 216.2 223.518 214.676C223.518 213.32 222.528 212.642 220.548 212.642C220.056 212.642 219.624 212.678 219.252 212.75V216.962ZM228.852 224V210.86H231.606V224H228.852ZM241.013 212.714C239.657 212.714 238.577 213.14 237.773 213.992C236.969 214.832 236.567 215.978 236.567 217.43C236.567 218.87 236.981 220.016 237.809 220.868C238.637 221.72 239.705 222.146 241.013 222.146C242.105 222.146 243.173 221.816 244.217 221.156L244.973 223.01C243.761 223.79 242.363 224.18 240.779 224.18C238.727 224.18 237.083 223.574 235.847 222.362C234.611 221.138 233.993 219.494 233.993 217.43C233.993 215.354 234.599 213.71 235.811 212.498C237.023 211.286 238.679 210.68 240.779 210.68C242.363 210.68 243.761 211.07 244.973 211.85L244.217 213.704C243.173 213.044 242.105 212.714 241.013 212.714ZM246.295 224L250.849 210.86H253.549L258.121 224H255.421L254.485 220.832H249.859L248.905 224H246.295ZM250.417 218.906H253.909L252.181 213.074H252.145L250.417 218.906ZM260.063 224V210.86H262.529L267.947 219.806H267.983V210.86H270.449V224H267.983L262.565 215.054H262.529V224H260.063ZM290.443 212.714C289.087 212.714 288.007 213.14 287.203 213.992C286.399 214.832 285.997 215.978 285.997 217.43C285.997 218.87 286.411 220.016 287.239 220.868C288.067 221.72 289.135 222.146 290.443 222.146C291.535 222.146 292.603 221.816 293.647 221.156L294.403 223.01C293.191 223.79 291.793 224.18 290.209 224.18C288.157 224.18 286.513 223.574 285.277 222.362C284.041 221.138 283.423 219.494 283.423 217.43C283.423 215.354 284.029 213.71 285.241 212.498C286.453 211.286 288.109 210.68 290.209 210.68C291.793 210.68 293.191 211.07 294.403 211.85L293.647 213.704C292.603 213.044 291.535 212.714 290.443 212.714ZM299.265 210.86V218.816C299.265 221.012 300.123 222.11 301.839 222.11C303.567 222.11 304.431 221.012 304.431 218.816V210.86H306.915V218.654C306.915 220.478 306.471 221.858 305.583 222.794C304.707 223.718 303.447 224.18 301.803 224.18C300.159 224.18 298.899 223.718 298.023 222.794C297.147 221.858 296.709 220.478 296.709 218.654V210.86H299.265ZM309.94 224V210.86H312.694V224H309.94ZM323.595 213.47C322.503 212.93 321.333 212.66 320.085 212.66C319.413 212.66 318.897 212.804 318.537 213.092C318.177 213.38 317.997 213.764 317.997 214.244C317.997 215.096 318.615 215.696 319.851 216.044C321.531 216.512 322.713 217.082 323.397 217.754C324.093 218.426 324.441 219.296 324.441 220.364C324.441 221.6 324.033 222.548 323.217 223.208C322.401 223.856 321.219 224.18 319.671 224.18C318.099 224.18 316.689 223.79 315.441 223.01L316.071 220.994C317.223 221.774 318.441 222.164 319.725 222.164C320.433 222.164 320.967 222.014 321.327 221.714C321.699 221.402 321.885 220.964 321.885 220.4C321.885 219.884 321.735 219.476 321.435 219.176C321.147 218.876 320.619 218.612 319.851 218.384C318.315 217.94 317.199 217.382 316.503 216.71C315.819 216.038 315.477 215.216 315.477 214.244C315.477 213.164 315.873 212.3 316.665 211.652C317.469 211.004 318.591 210.68 320.031 210.68C321.519 210.68 322.881 210.962 324.117 211.526L323.595 213.47ZM327.202 224V210.86H329.956V224H327.202ZM333.152 224V210.86H335.618L341.036 219.806H341.072V210.86H343.538V224H341.072L335.654 215.054H335.618V224H333.152ZM348.909 212.894V216.116H354.183V218.042H348.909V221.966H354.543V224H346.389V210.86H354.543V212.894H348.909ZM370.37 213.47C369.278 212.93 368.108 212.66 366.86 212.66C366.188 212.66 365.672 212.804 365.312 213.092C364.952 213.38 364.772 213.764 364.772 214.244C364.772 215.096 365.39 215.696 366.626 216.044C368.306 216.512 369.488 217.082 370.172 217.754C370.868 218.426 371.216 219.296 371.216 220.364C371.216 221.6 370.808 222.548 369.992 223.208C369.176 223.856 367.994 224.18 366.446 224.18C364.874 224.18 363.464 223.79 362.216 223.01L362.846 220.994C363.998 221.774 365.216 222.164 366.5 222.164C367.208 222.164 367.742 222.014 368.102 221.714C368.474 221.402 368.66 220.964 368.66 220.4C368.66 219.884 368.51 219.476 368.21 219.176C367.922 218.876 367.394 218.612 366.626 218.384C365.09 217.94 363.974 217.382 363.278 216.71C362.594 216.038 362.252 215.216 362.252 214.244C362.252 213.164 362.648 212.3 363.44 211.652C364.244 211.004 365.366 210.68 366.806 210.68C368.294 210.68 369.656 210.962 370.892 211.526L370.37 213.47ZM373.977 224V210.86H376.731V224H373.977ZM379.928 224V210.86H382.394L387.812 219.806H387.848V210.86H390.314V224H387.848L382.43 215.054H382.394V224H379.928ZM399.374 212.714C398.018 212.714 396.938 213.14 396.134 213.992C395.33 214.832 394.928 215.978 394.928 217.43C394.928 218.87 395.342 220.016 396.17 220.868C396.998 221.72 398.066 222.146 399.374 222.146C400.466 222.146 401.534 221.816 402.578 221.156L403.334 223.01C402.122 223.79 400.724 224.18 399.14 224.18C397.088 224.18 395.444 223.574 394.208 222.362C392.972 221.138 392.354 219.494 392.354 217.43C392.354 215.354 392.96 213.71 394.172 212.498C395.384 211.286 397.04 210.68 399.14 210.68C400.724 210.68 402.122 211.07 403.334 211.85L402.578 213.704C401.534 213.044 400.466 212.714 399.374 212.714ZM408.34 212.894V216.116H413.614V218.042H408.34V221.966H413.974V224H405.82V210.86H413.974V212.894H408.34ZM422.134 221.966C423.778 220.682 425.038 219.608 425.914 218.744C426.802 217.868 427.396 217.142 427.696 216.566C427.996 215.99 428.146 215.39 428.146 214.766C428.146 213.434 427.432 212.768 426.004 212.768C424.996 212.768 423.85 213.182 422.566 214.01L421.9 211.994C422.5 211.586 423.196 211.268 423.988 211.04C424.792 210.8 425.584 210.68 426.364 210.68C427.768 210.68 428.848 211.022 429.604 211.706C430.372 212.378 430.756 213.314 430.756 214.514C430.756 215.642 430.396 216.728 429.676 217.772C428.968 218.816 427.576 220.202 425.5 221.93V221.966H430.774V224H422.134V221.966ZM434.151 212.282C434.991 211.214 436.257 210.68 437.949 210.68C439.641 210.68 440.901 211.214 441.729 212.282C442.569 213.35 442.989 215.066 442.989 217.43C442.989 219.794 442.569 221.51 441.729 222.578C440.901 223.646 439.641 224.18 437.949 224.18C436.257 224.18 434.991 223.646 434.151 222.578C433.323 221.51 432.909 219.794 432.909 217.43C432.909 215.066 433.323 213.35 434.151 212.282ZM436.077 221.138C436.485 221.858 437.109 222.218 437.949 222.218C438.789 222.218 439.413 221.858 439.821 221.138C440.229 220.418 440.433 219.182 440.433 217.43C440.433 215.678 440.229 214.442 439.821 213.722C439.413 213.002 438.789 212.642 437.949 212.642C437.109 212.642 436.485 213.002 436.077 213.722C435.669 214.442 435.465 215.678 435.465 217.43C435.465 219.182 435.669 220.418 436.077 221.138ZM445.665 212.282C446.505 211.214 447.771 210.68 449.463 210.68C451.155 210.68 452.415 211.214 453.243 212.282C454.083 213.35 454.503 215.066 454.503 217.43C454.503 219.794 454.083 221.51 453.243 222.578C452.415 223.646 451.155 224.18 449.463 224.18C447.771 224.18 446.505 223.646 445.665 222.578C444.837 221.51 444.423 219.794 444.423 217.43C444.423 215.066 444.837 213.35 445.665 212.282ZM447.591 221.138C447.999 221.858 448.623 222.218 449.463 222.218C450.303 222.218 450.927 221.858 451.335 221.138C451.743 220.418 451.947 219.182 451.947 217.43C451.947 215.678 451.743 214.442 451.335 213.722C450.927 213.002 450.303 212.642 449.463 212.642C448.623 212.642 447.999 213.002 447.591 213.722C447.183 214.442 446.979 215.678 446.979 217.43C446.979 219.182 447.183 220.418 447.591 221.138ZM457.575 211.598C458.391 210.986 459.525 210.68 460.977 210.68C462.429 210.68 463.563 210.986 464.379 211.598C465.195 212.198 465.603 212.99 465.603 213.974C465.603 215.234 464.853 216.206 463.353 216.89V216.926C465.129 217.598 466.017 218.756 466.017 220.4C466.017 221.552 465.573 222.47 464.685 223.154C463.797 223.838 462.561 224.18 460.977 224.18C459.393 224.18 458.157 223.838 457.269 223.154C456.381 222.47 455.937 221.552 455.937 220.4C455.937 219.728 456.153 219.116 456.585 218.564C457.029 218 457.683 217.538 458.547 217.178V217.142C457.851 216.794 457.311 216.344 456.927 215.792C456.543 215.24 456.351 214.634 456.351 213.974C456.351 212.99 456.759 212.198 457.575 211.598ZM461.031 216.188C462.495 215.756 463.227 215.102 463.227 214.226C463.227 213.71 463.029 213.296 462.633 212.984C462.237 212.672 461.685 212.516 460.977 212.516C460.281 212.516 459.735 212.672 459.339 212.984C458.955 213.296 458.763 213.71 458.763 214.226C458.763 215.126 459.519 215.78 461.031 216.188ZM460.779 217.988C459.159 218.48 458.349 219.242 458.349 220.274C458.349 220.898 458.589 221.402 459.069 221.786C459.549 222.158 460.185 222.344 460.977 222.344C461.769 222.344 462.393 222.158 462.849 221.786C463.317 221.402 463.551 220.898 463.551 220.274C463.551 219.722 463.347 219.272 462.939 218.924C462.543 218.564 461.823 218.252 460.779 217.988Z" fill="black"/>
</g>
<path d="M22.595 174.74H23.89C26.06 174.74 27.6233 174.448 28.58 173.865C29.56 173.258 30.05 172.372 30.05 171.205C30.05 170.085 29.6533 169.257 28.86 168.72C28.09 168.183 26.8067 167.915 25.01 167.915C24.1233 167.915 23.3183 167.985 22.595 168.125V174.74ZM22.595 178.38V186.325C23.4117 186.465 24.2867 186.535 25.22 186.535C27.1567 186.535 28.5683 186.185 29.455 185.485C30.365 184.762 30.82 183.665 30.82 182.195C30.82 180.888 30.3067 179.932 29.28 179.325C28.2533 178.695 26.5383 178.38 24.135 178.38H22.595ZM35.51 182.65C35.51 185.217 34.67 187.142 32.99 188.425C31.31 189.708 28.685 190.35 25.115 190.35C22.525 190.35 20.075 190.175 17.765 189.825V164.625C19.9583 164.275 22.2917 164.1 24.765 164.1C31.2983 164.1 34.565 166.235 34.565 170.505C34.565 171.952 34.0867 173.2 33.13 174.25C32.1733 175.277 30.9017 175.942 29.315 176.245V176.315C31.2283 176.572 32.7333 177.283 33.83 178.45C34.95 179.593 35.51 180.993 35.51 182.65ZM44.2991 180.025V190H39.4691V164.625C41.8491 164.275 44.4158 164.1 47.1691 164.1C50.5991 164.1 53.1658 164.742 54.8691 166.025C56.5724 167.285 57.4241 169.07 57.4241 171.38C57.4241 173.06 56.9691 174.53 56.0591 175.79C55.1724 177.05 53.9591 177.925 52.4191 178.415V178.485C53.5391 179.138 54.5074 180.527 55.3241 182.65L58.1241 190H53.0841L50.4241 182.755C50.0041 181.635 49.5258 180.9 48.9891 180.55C48.4524 180.2 47.5308 180.025 46.2241 180.025H44.2991ZM44.2991 176.315H46.3641C50.5174 176.315 52.5941 174.833 52.5941 171.87C52.5941 169.233 50.6691 167.915 46.8191 167.915C45.8624 167.915 45.0224 167.985 44.2991 168.125V176.315ZM60.8588 190L69.7138 164.45H74.9638L83.8538 190H78.6038L76.7838 183.84H67.7888L65.9338 190H60.8588ZM68.8738 180.095H75.6638L72.3038 168.755H72.2338L68.8738 180.095ZM101.549 169.525C99.4254 168.475 97.1504 167.95 94.7237 167.95C93.417 167.95 92.4137 168.23 91.7137 168.79C91.0137 169.35 90.6637 170.097 90.6637 171.03C90.6637 172.687 91.8654 173.853 94.2687 174.53C97.5354 175.44 99.8337 176.548 101.164 177.855C102.517 179.162 103.194 180.853 103.194 182.93C103.194 185.333 102.4 187.177 100.814 188.46C99.227 189.72 96.9287 190.35 93.9187 190.35C90.862 190.35 88.1204 189.592 85.6937 188.075L86.9187 184.155C89.1587 185.672 91.527 186.43 94.0237 186.43C95.4004 186.43 96.4387 186.138 97.1387 185.555C97.862 184.948 98.2237 184.097 98.2237 183C98.2237 181.997 97.932 181.203 97.3487 180.62C96.7887 180.037 95.762 179.523 94.2687 179.08C91.282 178.217 89.112 177.132 87.7587 175.825C86.4287 174.518 85.7637 172.92 85.7637 171.03C85.7637 168.93 86.5337 167.25 88.0737 165.99C89.637 164.73 91.8187 164.1 94.6187 164.1C97.512 164.1 100.16 164.648 102.564 165.745L101.549 169.525ZM122.159 169.525C120.036 168.475 117.761 167.95 115.334 167.95C114.027 167.95 113.024 168.23 112.324 168.79C111.624 169.35 111.274 170.097 111.274 171.03C111.274 172.687 112.476 173.853 114.879 174.53C118.146 175.44 120.444 176.548 121.774 177.855C123.127 179.162 123.804 180.853 123.804 182.93C123.804 185.333 123.011 187.177 121.424 188.46C119.837 189.72 117.539 190.35 114.529 190.35C111.472 190.35 108.731 189.592 106.304 188.075L107.529 184.155C109.769 185.672 112.137 186.43 114.634 186.43C116.011 186.43 117.049 186.138 117.749 185.555C118.472 184.948 118.834 184.097 118.834 183C118.834 181.997 118.542 181.203 117.959 180.62C117.399 180.037 116.372 179.523 114.879 179.08C111.892 178.217 109.722 177.132 108.369 175.825C107.039 174.518 106.374 172.92 106.374 171.03C106.374 168.93 107.144 167.25 108.684 165.99C110.247 164.73 112.429 164.1 115.229 164.1C118.122 164.1 120.771 164.648 123.174 165.745L122.159 169.525ZM133.373 168.405V174.67H143.628V178.415H133.373V186.045H144.328V190H128.473V164.45H144.328V168.405H133.373ZM154.324 180.025V190H149.494V164.625C151.874 164.275 154.44 164.1 157.194 164.1C160.624 164.1 163.19 164.742 164.894 166.025C166.597 167.285 167.449 169.07 167.449 171.38C167.449 173.06 166.994 174.53 166.084 175.79C165.197 177.05 163.984 177.925 162.444 178.415V178.485C163.564 179.138 164.532 180.527 165.349 182.65L168.149 190H163.109L160.449 182.755C160.029 181.635 159.55 180.9 159.014 180.55C158.477 180.2 157.555 180.025 156.249 180.025H154.324ZM154.324 176.315H156.389C160.542 176.315 162.619 174.833 162.619 171.87C162.619 169.233 160.694 167.915 156.844 167.915C155.887 167.915 155.047 167.985 154.324 168.125V176.315ZM172.991 190V164.45H178.346V190H172.991ZM189.462 168.405V174.67H199.717V178.415H189.462V186.045H200.417V190H184.562V164.45H200.417V168.405H189.462ZM231.192 169.525C229.069 168.475 226.794 167.95 224.367 167.95C223.061 167.95 222.057 168.23 221.357 168.79C220.657 169.35 220.307 170.097 220.307 171.03C220.307 172.687 221.509 173.853 223.912 174.53C227.179 175.44 229.477 176.548 230.807 177.855C232.161 179.162 232.837 180.853 232.837 182.93C232.837 185.333 232.044 187.177 230.457 188.46C228.871 189.72 226.572 190.35 223.562 190.35C220.506 190.35 217.764 189.592 215.337 188.075L216.562 184.155C218.802 185.672 221.171 186.43 223.667 186.43C225.044 186.43 226.082 186.138 226.782 185.555C227.506 184.948 227.867 184.097 227.867 183C227.867 181.997 227.576 181.203 226.992 180.62C226.432 180.037 225.406 179.523 223.912 179.08C220.926 178.217 218.756 177.132 217.402 175.825C216.072 174.518 215.407 172.92 215.407 171.03C215.407 168.93 216.177 167.25 217.717 165.99C219.281 164.73 221.462 164.1 224.262 164.1C227.156 164.1 229.804 164.648 232.207 165.745L231.192 169.525ZM255.548 164.45V168.51H248.233V190H243.263V168.51H235.948V164.45H255.548ZM265.102 168.405V174.67H275.357V178.415H265.102V186.045H276.057V190H260.202V164.45H276.057V168.405H265.102ZM279.472 190L288.327 164.45H293.577L302.467 190H297.217L295.397 183.84H286.402L284.547 190H279.472ZM287.487 180.095H294.277L290.917 168.755H290.847L287.487 180.095ZM311.142 164.45V175.545H311.212L320.137 164.45H325.842L315.692 176.7L326.192 190H320.487L311.212 177.855H311.142V190H306.242V164.45H311.142ZM355.887 178.415H345.492V190H340.592V164.45H345.492V174.67H355.887V164.45H360.787V190H355.887V178.415ZM368.219 167.67C370.553 165.29 373.656 164.1 377.529 164.1C381.403 164.1 384.494 165.29 386.804 167.67C389.138 170.027 390.304 173.212 390.304 177.225C390.304 181.238 389.138 184.435 386.804 186.815C384.494 189.172 381.403 190.35 377.529 190.35C373.656 190.35 370.553 189.172 368.219 186.815C365.909 184.435 364.754 181.238 364.754 177.225C364.754 173.212 365.909 170.027 368.219 167.67ZM371.859 183.945C373.259 185.532 375.149 186.325 377.529 186.325C379.909 186.325 381.799 185.532 383.199 183.945C384.599 182.335 385.299 180.095 385.299 177.225C385.299 174.355 384.599 172.127 383.199 170.54C381.799 168.93 379.909 168.125 377.529 168.125C375.149 168.125 373.259 168.93 371.859 170.54C370.459 172.127 369.759 174.355 369.759 177.225C369.759 180.095 370.459 182.335 371.859 183.945ZM398.874 164.45V179.92C398.874 184.19 400.543 186.325 403.879 186.325C407.239 186.325 408.919 184.19 408.919 179.92V164.45H413.749V179.605C413.749 183.152 412.886 185.835 411.159 187.655C409.456 189.452 407.006 190.35 403.809 190.35C400.613 190.35 398.163 189.452 396.459 187.655C394.756 185.835 393.904 183.152 393.904 179.605V164.45H398.874ZM433.57 169.525C431.447 168.475 429.172 167.95 426.745 167.95C425.439 167.95 424.435 168.23 423.735 168.79C423.035 169.35 422.685 170.097 422.685 171.03C422.685 172.687 423.887 173.853 426.29 174.53C429.557 175.44 431.855 176.548 433.185 177.855C434.539 179.162 435.215 180.853 435.215 182.93C435.215 185.333 434.422 187.177 432.835 188.46C431.249 189.72 428.95 190.35 425.94 190.35C422.884 190.35 420.142 189.592 417.715 188.075L418.94 184.155C421.18 185.672 423.549 186.43 426.045 186.43C427.422 186.43 428.46 186.138 429.16 185.555C429.884 184.948 430.245 184.097 430.245 183C430.245 181.997 429.954 181.203 429.37 180.62C428.81 180.037 427.784 179.523 426.29 179.08C423.304 178.217 421.134 177.132 419.78 175.825C418.45 174.518 417.785 172.92 417.785 171.03C417.785 168.93 418.555 167.25 420.095 165.99C421.659 164.73 423.84 164.1 426.64 164.1C429.534 164.1 432.182 164.648 434.585 165.745L433.57 169.525ZM444.784 168.405V174.67H455.039V178.415H444.784V186.045H455.739V190H439.884V164.45H455.739V168.405H444.784Z" fill="#C4B321"/>
</g>
<path d="M194.426 38.6363L209.653 28.1694C214.797 24.6338 220.93 22.8207 227.169 22.991L245.9 23.5024C252.096 23.6715 258.082 25.7882 263.007 29.552L278.022 41.0266C282.947 44.7904 286.562 50.0099 288.352 55.9443L293.765 73.8833C295.568 79.8588 295.429 86.2522 293.369 92.1439L287.269 109.586C285.199 115.503 281.299 120.607 276.133 124.158L260.906 134.625C255.762 138.16 249.629 139.973 243.39 139.803L224.659 139.292C218.463 139.122 212.477 137.006 207.552 133.242L192.537 121.767C187.612 118.004 183.997 112.784 182.207 106.85L176.794 88.9107C174.991 82.9351 175.129 76.5417 177.19 70.65L183.29 53.2081C185.36 47.2911 189.26 42.1871 194.426 38.6363Z" stroke="#C4B321" stroke-width="3"/>
<path d="M221.829 16.85L245.418 16.237C251.646 16.0752 257.765 17.8891 262.898 21.4187L282.342 34.788C287.476 38.3176 291.36 43.3818 293.438 49.2547L301.311 71.4997C303.389 77.3725 303.555 83.7526 301.784 89.7255L295.078 112.349C293.307 118.322 289.691 123.581 284.748 127.373L266.025 141.734C261.081 145.525 255.065 147.655 248.837 147.816L225.248 148.429C219.021 148.591 212.901 146.777 207.768 143.248L188.324 129.878C183.19 126.349 179.306 121.285 177.228 115.412L169.356 93.1667C167.277 87.2938 167.111 80.9137 168.882 74.9408L175.588 52.317C177.359 46.3441 180.975 41.0851 185.918 37.2936L204.642 22.9325C209.585 19.141 215.601 17.0118 221.829 16.85Z" stroke="#C4B321" stroke-width="3"/>
<path d="M244.916 20.4287L266.169 27.4323C272.024 29.3621 277.128 33.078 280.763 38.058L293.132 55.0032C296.901 60.1672 298.891 66.4159 298.801 72.8086L298.52 92.9063C298.43 99.2989 296.266 105.489 292.354 110.546L279.515 127.138C275.742 132.014 270.536 135.586 264.629 137.351L243.189 143.756C237.409 145.483 231.24 145.396 225.511 143.509L204.259 136.505C198.403 134.575 193.299 130.859 189.664 125.879L177.295 108.934C173.526 103.77 171.537 97.5213 171.626 91.1287L171.908 71.031C171.997 64.6383 174.161 58.4478 178.074 53.3914L190.912 36.7994C194.685 31.9231 199.891 28.3516 205.798 26.5866L227.239 20.1811C233.018 18.4544 239.188 18.5409 244.916 20.4287Z" stroke="#C4B321" stroke-width="3"/>
<path d="M206.46 35.012L221.435 28.714C227.182 26.297 233.547 25.763 239.617 27.1887L255.533 30.9272C261.585 32.3488 267.034 35.6461 271.1 40.3484L281.837 52.763C285.904 57.4653 288.381 63.3322 288.915 69.5262L290.319 85.8152C290.855 92.0268 289.409 98.2484 286.188 103.587L277.797 117.498C274.57 122.846 269.73 127.032 263.973 129.453L248.997 135.751C243.25 138.168 236.885 138.702 230.816 137.276L214.899 133.538C208.847 132.116 203.399 128.819 199.332 124.117L188.596 111.702C184.529 107 182.052 101.133 181.518 94.9387L180.113 78.6498C179.578 72.4381 181.024 66.2165 184.244 60.878L192.636 46.9672C195.862 41.6193 200.702 37.4332 206.46 35.012Z" stroke="#C4B321" stroke-width="3"/>
<g clip-path="url(#clip3_1_4)">
<path d="M194.604 106.768H195.048C195.792 106.768 196.328 106.668 196.656 106.468C196.992 106.26 197.16 105.956 197.16 105.556C197.16 105.172 197.024 104.888 196.752 104.704C196.488 104.52 196.048 104.428 195.432 104.428C195.128 104.428 194.852 104.452 194.604 104.5V106.768ZM194.604 108.016V110.74C194.884 110.788 195.184 110.812 195.504 110.812C196.168 110.812 196.652 110.692 196.956 110.452C197.268 110.204 197.424 109.828 197.424 109.324C197.424 108.876 197.248 108.548 196.896 108.34C196.544 108.124 195.956 108.016 195.132 108.016H194.604ZM199.032 109.48C199.032 110.36 198.744 111.02 198.168 111.46C197.592 111.9 196.692 112.12 195.468 112.12C194.58 112.12 193.74 112.06 192.948 111.94V103.3C193.7 103.18 194.5 103.12 195.348 103.12C197.588 103.12 198.708 103.852 198.708 105.316C198.708 105.812 198.544 106.24 198.216 106.6C197.888 106.952 197.452 107.18 196.908 107.284V107.308C197.564 107.396 198.08 107.64 198.456 108.04C198.84 108.432 199.032 108.912 199.032 109.48ZM204.109 105.76H205.597L205.621 106.96H205.645C206.357 106.08 207.313 105.64 208.513 105.64V106.912C207.625 106.912 206.933 107.128 206.437 107.56C205.949 107.984 205.705 108.556 205.705 109.276V112H204.109V105.76ZM215.93 105.64C216.882 105.64 217.566 105.828 217.982 106.204C218.398 106.572 218.606 107.172 218.606 108.004V110.32C218.606 110.888 218.666 111.448 218.786 112H217.31C217.262 111.736 217.226 111.428 217.202 111.076H217.178C216.954 111.404 216.65 111.66 216.266 111.844C215.89 112.028 215.478 112.12 215.03 112.12C214.446 112.12 213.978 111.96 213.626 111.64C213.282 111.312 213.11 110.86 213.11 110.284C213.11 109.588 213.402 109.032 213.986 108.616C214.578 108.192 215.426 107.98 216.53 107.98H217.046V107.944C217.046 107.52 216.962 107.224 216.794 107.056C216.626 106.888 216.326 106.804 215.894 106.804C215.11 106.804 214.37 106.984 213.674 107.344L213.446 106.18C214.206 105.82 215.034 105.64 215.93 105.64ZM214.574 110.164C214.574 110.42 214.65 110.62 214.802 110.764C214.954 110.908 215.162 110.98 215.426 110.98C215.882 110.98 216.266 110.832 216.578 110.536C216.89 110.24 217.046 109.868 217.046 109.42V109.012H216.53C215.898 109.012 215.414 109.12 215.078 109.336C214.742 109.544 214.574 109.82 214.574 110.164ZM228.427 107.272C227.763 106.968 227.111 106.816 226.471 106.816C225.735 106.816 225.367 107.032 225.367 107.464C225.367 107.672 225.447 107.832 225.607 107.944C225.767 108.056 226.047 108.14 226.447 108.196C227.335 108.324 227.971 108.556 228.355 108.892C228.739 109.22 228.931 109.676 228.931 110.26C228.931 110.836 228.707 111.292 228.259 111.628C227.819 111.956 227.195 112.12 226.387 112.12C225.419 112.12 224.559 111.92 223.807 111.52L224.107 110.344C224.787 110.736 225.519 110.932 226.303 110.932C226.999 110.932 227.347 110.7 227.347 110.236C227.347 110.02 227.275 109.86 227.131 109.756C226.987 109.644 226.707 109.552 226.291 109.48C225.411 109.336 224.779 109.1 224.395 108.772C224.019 108.444 223.831 108 223.831 107.44C223.831 106.888 224.047 106.452 224.479 106.132C224.919 105.804 225.555 105.64 226.387 105.64C227.219 105.64 227.999 105.792 228.727 106.096L228.427 107.272ZM238.455 107.272C237.791 106.968 237.139 106.816 236.499 106.816C235.763 106.816 235.395 107.032 235.395 107.464C235.395 107.672 235.475 107.832 235.635 107.944C235.795 108.056 236.075 108.14 236.475 108.196C237.363 108.324 237.999 108.556 238.383 108.892C238.767 109.22 238.959 109.676 238.959 110.26C238.959 110.836 238.735 111.292 238.287 111.628C237.847 111.956 237.223 112.12 236.415 112.12C235.447 112.12 234.587 111.92 233.835 111.52L234.135 110.344C234.815 110.736 235.547 110.932 236.331 110.932C237.027 110.932 237.375 110.7 237.375 110.236C237.375 110.02 237.303 109.86 237.159 109.756C237.015 109.644 236.735 109.552 236.319 109.48C235.439 109.336 234.807 109.1 234.423 108.772C234.047 108.444 233.859 108 233.859 107.44C233.859 106.888 234.075 106.452 234.507 106.132C234.947 105.804 235.583 105.64 236.415 105.64C237.247 105.64 238.027 105.792 238.755 106.096L238.455 107.272ZM245.359 108.376H248.287C248.279 107.856 248.147 107.46 247.891 107.188C247.643 106.908 247.291 106.768 246.835 106.768C246.395 106.768 246.043 106.908 245.779 107.188C245.523 107.468 245.383 107.864 245.359 108.376ZM245.359 109.444C245.399 109.916 245.579 110.292 245.899 110.572C246.227 110.844 246.639 110.98 247.135 110.98C247.727 110.98 248.315 110.832 248.899 110.536L249.259 111.64C248.539 111.96 247.779 112.12 246.979 112.12C246.035 112.12 245.267 111.828 244.675 111.244C244.091 110.66 243.799 109.872 243.799 108.88C243.799 107.872 244.071 107.08 244.615 106.504C245.159 105.928 245.895 105.64 246.823 105.64C247.751 105.64 248.471 105.916 248.983 106.468C249.503 107.02 249.763 107.812 249.763 108.844C249.763 109.044 249.751 109.244 249.727 109.444H245.359ZM254.903 105.76H256.391L256.415 106.96H256.439C257.151 106.08 258.107 105.64 259.307 105.64V106.912C258.419 106.912 257.727 107.128 257.231 107.56C256.743 107.984 256.499 108.556 256.499 109.276V112H254.903V105.76ZM264.927 104.44V103H266.571V104.44H264.927ZM264.927 112V105.76H266.571V112H264.927ZM273.567 108.376H276.495C276.487 107.856 276.355 107.46 276.099 107.188C275.851 106.908 275.499 106.768 275.043 106.768C274.603 106.768 274.251 106.908 273.987 107.188C273.731 107.468 273.591 107.864 273.567 108.376ZM273.567 109.444C273.607 109.916 273.787 110.292 274.107 110.572C274.435 110.844 274.847 110.98 275.343 110.98C275.935 110.98 276.523 110.832 277.107 110.536L277.467 111.64C276.747 111.96 275.987 112.12 275.187 112.12C274.243 112.12 273.475 111.828 272.883 111.244C272.299 110.66 272.007 109.872 272.007 108.88C272.007 107.872 272.279 107.08 272.823 106.504C273.367 105.928 274.103 105.64 275.031 105.64C275.959 105.64 276.679 105.916 277.191 106.468C277.711 107.02 277.971 107.812 277.971 108.844C277.971 109.044 277.959 109.244 277.935 109.444H273.567Z" fill="#C4B321"/>
<path d="M208.249 61.75C211.715 61.25 215.382 61 219.249 61C224.249 61 227.999 62 230.499 64C232.999 65.9667 234.249 68.8333 234.249 72.6C234.249 76.7667 233.032 79.9167 230.599 82.05C228.199 84.1833 224.632 85.25 219.899 85.25C217.965 85.25 216.382 85.1833 215.149 85.05V98H208.249V61.75ZM215.149 79.65C216.415 79.85 217.782 79.95 219.249 79.95C221.949 79.95 223.999 79.3667 225.399 78.2C226.832 77 227.549 75.3 227.549 73.1C227.549 68.6667 224.782 66.45 219.249 66.45C217.749 66.45 216.382 66.55 215.149 66.75V79.65ZM246.545 76.2H248.395C251.495 76.2 253.729 75.7833 255.095 74.95C256.495 74.0833 257.195 72.8167 257.195 71.15C257.195 69.55 256.629 68.3667 255.495 67.6C254.395 66.8333 252.562 66.45 249.995 66.45C248.729 66.45 247.579 66.55 246.545 66.75V76.2ZM246.545 81.4V92.75C247.712 92.95 248.962 93.05 250.295 93.05C253.062 93.05 255.079 92.55 256.345 91.55C257.645 90.5167 258.295 88.95 258.295 86.85C258.295 84.9833 257.562 83.6167 256.095 82.75C254.629 81.85 252.179 81.4 248.745 81.4H246.545ZM264.995 87.5C264.995 91.1667 263.795 93.9167 261.395 95.75C258.995 97.5833 255.245 98.5 250.145 98.5C246.445 98.5 242.945 98.25 239.645 97.75V61.75C242.779 61.25 246.112 61 249.645 61C258.979 61 263.645 64.05 263.645 70.15C263.645 72.2167 262.962 74 261.595 75.5C260.229 76.9667 258.412 77.9167 256.145 78.35V78.45C258.879 78.8167 261.029 79.8333 262.595 81.5C264.195 83.1333 264.995 85.1333 264.995 87.5Z" fill="#C4B321"/>
</g>
</g>
<defs>
<clipPath id="clip0_1_4">
<rect width="470" height="254" fill="white"/>
</clipPath>
<clipPath id="clip1_1_4">
<rect width="470" height="101" fill="white" transform="translate(0 153)"/>
</clipPath>
<clipPath id="clip2_1_4">
<rect width="478" height="26" fill="white" transform="translate(-4 204)"/>
</clipPath>
<clipPath id="clip3_1_4">
<rect width="90" height="78" fill="white" transform="translate(190 43)"/>
</clipPath>
</defs>
</svg>
